<svg width="1920" height="911" viewBox="0 0 1920 911" fill="none" xmlns="http://www.w3.org/2000/svg">
<mask id="mask0" mask-type="alpha" maskUnits="userSpaceOnUse" x="0" y="0" width="1920" height="911">
<path d="M0 0H1920V911H0V0Z" fill="#F6F9FC"/>
</mask>
<g mask="url(#mask0)">
<circle cx="1070" cy="905" r="204" stroke="#E94560" stroke-opacity="0.07" stroke-width="90"/>
<circle cx="700" cy="905" r="125" stroke="#E94560" stroke-opacity="0.13" stroke-width="248"/>
<path d="M149.336 -92.0045C185.325 -78.9537 200.457 -36.2894 180.747 -3.4456C170.321 13.9274 169.229 35.3773 177.812 53.7233C194.022 88.3749 174.602 129.294 137.484 138.556C117.838 143.458 101.917 157.827 95.0291 176.875C82.0078 212.883 39.3571 228.039 6.56672 208.311C-10.7796 197.875 -32.1878 196.771 -50.524 205.366C-85.1669 221.605 -126.018 202.104 -135.266 164.978C-140.163 145.322 -154.523 129.364 -173.56 122.46C-209.548 109.409 -224.681 66.745 -204.97 33.9013C-194.545 16.5283 -193.452 -4.92168 -202.035 -23.2677C-218.245 -57.9193 -198.825 -98.8387 -161.707 -108.1C-142.061 -113.002 -126.141 -127.371 -119.252 -146.42C-106.231 -182.427 -63.5802 -197.584 -30.7899 -177.855C-13.4436 -167.419 7.96462 -166.315 26.3009 -174.91C60.9438 -191.15 101.795 -171.648 111.043 -134.522C115.939 -114.867 130.3 -98.9079 149.336 -92.0045Z" fill="#E94560" fill-opacity="0.12"/>
<path d="M1992.95 -92.0045C2028.94 -78.9537 2044.07 -36.2894 2024.36 -3.4456C2013.93 13.9274 2012.84 35.3773 2021.42 53.7233C2037.63 88.3749 2018.21 129.294 1981.1 138.556C1961.45 143.458 1945.53 157.827 1938.64 176.875C1925.62 212.883 1882.97 228.039 1850.18 208.311C1832.83 197.875 1811.42 196.771 1793.09 205.366C1758.44 221.605 1717.59 202.104 1708.35 164.978C1703.45 145.322 1689.09 129.364 1670.05 122.46C1634.06 109.409 1618.93 66.745 1638.64 33.9013C1649.07 16.5283 1650.16 -4.92168 1641.58 -23.2677C1625.37 -57.9193 1644.79 -98.8387 1681.9 -108.1C1701.55 -113.002 1717.47 -127.371 1724.36 -146.42C1737.38 -182.427 1780.03 -197.584 1812.82 -177.855C1830.17 -167.419 1851.58 -166.315 1869.91 -174.91C1904.56 -191.15 1945.41 -171.648 1954.65 -134.522C1959.55 -114.867 1973.91 -98.9079 1992.95 -92.0045Z" fill="#E94560" fill-opacity="0.12"/>
<circle opacity="0.5" cx="1827" cy="940" r="191" stroke="#0F3460" stroke-opacity="0.2" stroke-width="60"/>
<circle opacity="0.5" cx="4" cy="940" r="191" stroke="#0F3460" stroke-opacity="0.2" stroke-width="60"/>
</g>
</svg>
